<svg xmlns="http://www.w3.org/2000/svg" version="1.1" xmlns:xlink="http://www.w3.org/1999/xlink" xmlns:svgjs="http://svgjs.dev/svgjs" viewBox="0 0 10.990349343474874 2.6399143235741165"><g transform="matrix(1,0,0,1,3.728981337666264,0.7949571617870583)"><g><path d=" M 0.4965 0.06299999999999983 C 0.34650000000000003 0.11249999999999982 0.2745 0.13349999999999984 0.17250000000000001 0.16949999999999976 C 0.132 0.18449999999999978 0 0.34199999999999986 0 0.40049999999999986 C 0 0.43799999999999983 0.099 0.5849999999999997 0.129 0.5849999999999997 C 0.153 0.5849999999999997 0.21 0.5504999999999998 0.21 0.5294999999999999 C 0.21 0.5084999999999998 0.17250000000000001 0.40649999999999986 0.17250000000000001 0.3719999999999998 C 0.17250000000000001 0.35399999999999976 0.20700000000000002 0.2879999999999998 0.2265 0.2789999999999998 C 0.33 0.22799999999999976 0.46950000000000003 0.1649999999999998 0.46950000000000003 0.1649999999999998 C 0.46950000000000003 0.1649999999999998 0.426 0.2084999999999998 0.41100000000000003 0.25349999999999984 C 0.3855 0.3224999999999998 0.3045 0.7544999999999998 0.3045 0.8939999999999998 C 0.3045 0.9629999999999999 0.4605 1.0649999999999997 0.5505 1.0649999999999997 C 0.6705 1.0649999999999997 1.1385 0.32099999999999984 1.1385 0.13049999999999984 C 1.1385 0.0854999999999998 1.104 -2.220446049250313e-16 1.0845 -2.220446049250313e-16 C 1.0575 -2.220446049250313e-16 0.9435 0.046499999999999764 0.9435 0.06149999999999978 C 0.9435 0.07349999999999979 0.9540000000000001 0.11249999999999982 0.9540000000000001 0.13949999999999985 C 0.9540000000000001 0.2939999999999998 0.591 0.9359999999999998 0.5205 0.9359999999999998 C 0.501 0.9359999999999998 0.4815 0.9164999999999999 0.4815 0.8879999999999998 C 0.4815 0.7769999999999998 0.5700000000000001 0.3029999999999998 0.609 0.20999999999999985 C 0.627 0.16649999999999976 0.7005 0.09749999999999981 0.7005 0.08399999999999985 C 0.7005 0.06149999999999978 0.6165 -2.220446049250313e-16 0.591 -2.220446049250313e-16 C 0.5730000000000001 -2.220446049250313e-16 0.513 0.058499999999999774 0.4965 0.06299999999999983 M 1.6409897460937501 0.15749999999999975 C 1.6409897460937501 0.19799999999999984 1.6199897460937502 0.24899999999999978 1.59898974609375 0.30149999999999977 C 1.59148974609375 0.3194999999999998 1.5854897460937503 0.3314999999999998 1.5854897460937503 0.34199999999999986 C 1.5854897460937503 0.3689999999999998 1.6544897460937502 0.4049999999999998 1.6784897460937502 0.4049999999999998 C 1.6904897460937502 0.4049999999999998 1.69798974609375 0.39449999999999985 1.70698974609375 0.3809999999999998 C 1.74448974609375 0.3194999999999998 1.7939897460937502 0.22949999999999982 1.7939897460937502 0.18599999999999983 C 1.7939897460937502 0.11099999999999977 1.6199897460937502 -2.220446049250313e-16 1.55698974609375 -2.220446049250313e-16 C 1.42198974609375 -2.220446049250313e-16 1.15948974609375 0.25049999999999983 1.15948974609375 0.41549999999999976 C 1.15948974609375 0.6134999999999998 1.50448974609375 0.6344999999999998 1.50448974609375 0.7649999999999998 C 1.50448974609375 0.8369999999999999 1.4084897460937502 0.9599999999999999 1.32148974609375 0.9599999999999999 C 1.2854897460937502 0.9599999999999999 1.2329897460937502 0.8879999999999998 1.2329897460937502 0.8549999999999998 C 1.2329897460937502 0.8159999999999998 1.2614897460937502 0.7574999999999998 1.2614897460937502 0.7379999999999998 C 1.2614897460937502 0.7169999999999999 1.19998974609375 0.6764999999999999 1.1834897460937501 0.6764999999999999 C 1.15348974609375 0.6764999999999999 1.0544897460937501 0.7934999999999999 1.0544897460937501 0.8384999999999998 C 1.0544897460937501 0.9254999999999998 1.2374897460937502 1.0649999999999997 1.3619897460937502 1.0649999999999997 C 1.51648974609375 1.0649999999999997 1.7054897460937501 0.8549999999999998 1.7054897460937501 0.7259999999999998 C 1.7054897460937501 0.5744999999999998 1.3604897460937502 0.5609999999999998 1.3604897460937502 0.43049999999999977 C 1.3604897460937502 0.3059999999999998 1.5254897460937502 0.11099999999999977 1.5854897460937503 0.11099999999999977 C 1.6079897460937502 0.11099999999999977 1.6409897460937501 0.13649999999999984 1.6409897460937501 0.15749999999999975 M 2.120961181640625 0.9344999999999998 C 2.120961181640625 1.0019999999999998 2.2469611816406254 1.0649999999999997 2.3144611816406253 1.0649999999999997 C 2.4239611816406255 1.0649999999999997 2.510961181640625 0.9284999999999999 2.5934611816406252 0.7784999999999997 C 2.5934611816406252 0.7784999999999997 2.6129611816406255 0.7439999999999998 2.6129611816406255 0.7259999999999998 C 2.6129611816406255 0.7079999999999997 2.581461181640625 0.6839999999999998 2.5619611816406254 0.6839999999999998 C 2.5424611816406255 0.6839999999999998 2.528961181640625 0.7109999999999999 2.528961181640625 0.7109999999999999 C 2.4554611816406253 0.8459999999999999 2.3729611816406253 0.9614999999999998 2.3294611816406254 0.9614999999999998 C 2.3159611816406254 0.9614999999999998 2.2904611816406253 0.9389999999999998 2.2904611816406253 0.9194999999999998 C 2.2904611816406253 0.8399999999999999 2.3834611816406253 0.5474999999999998 2.3834611816406253 0.47699999999999976 C 2.3834611816406253 0.42149999999999976 2.3009611816406252 0.35999999999999976 2.2574611816406254 0.35999999999999976 C 2.167461181640625 0.35999999999999976 2.0429611816406252 0.4604999999999998 2.0429611816406252 0.4604999999999998 C 2.0429611816406252 0.4604999999999998 2.084961181640625 0.31799999999999984 2.120961181640625 0.19199999999999984 C 2.123961181640625 0.17999999999999983 2.1284611816406254 0.1649999999999998 2.1284611816406254 0.15449999999999975 C 2.1284611816406254 0.12899999999999978 2.027961181640625 0.07499999999999984 1.9994611816406254 0.07499999999999984 C 1.9874611816406254 0.07499999999999984 1.9739611816406253 0.08399999999999985 1.9679611816406253 0.10649999999999982 C 1.9244611816406252 0.23999999999999977 1.7429611816406252 0.9314999999999998 1.7429611816406252 0.9854999999999998 C 1.7429611816406252 1.0259999999999998 1.8314611816406252 1.0649999999999997 1.8674611816406252 1.0649999999999997 C 1.8884611816406252 1.0649999999999997 1.8929611816406253 1.0499999999999998 1.8989611816406253 1.0304999999999997 C 1.9079611816406252 0.9839999999999998 1.9679611816406253 0.7379999999999998 2.0084611816406253 0.6104999999999998 C 2.027961181640625 0.5459999999999998 2.1149611816406253 0.4904999999999998 2.1509611816406253 0.4904999999999998 C 2.170461181640625 0.4904999999999998 2.1959611816406253 0.5159999999999998 2.1959611816406253 0.5414999999999998 C 2.1959611816406253 0.5984999999999998 2.120961181640625 0.8384999999999998 2.120961181640625 0.9344999999999998 M 2.9579318847656255 0.5234999999999999 C 2.9579318847656255 0.5654999999999999 2.9114318847656255 0.7469999999999999 2.8814318847656253 0.8099999999999998 C 2.8394318847656255 0.8969999999999998 2.7644318847656253 0.9494999999999998 2.7344318847656255 0.9494999999999998 C 2.7089318847656254 0.9494999999999998 2.6819318847656253 0.9239999999999998 2.6819318847656253 0.8894999999999998 C 2.6819318847656253 0.7574999999999998 2.8019318847656254 0.47999999999999976 2.8769318847656256 0.47999999999999976 C 2.900931884765625 0.47999999999999976 2.9579318847656255 0.49949999999999983 2.9579318847656255 0.5234999999999999 M 3.2849318847656255 0.7109999999999999 C 3.2114318847656254 0.8459999999999999 3.1304318847656254 0.9614999999999998 3.0854318847656255 0.9614999999999998 C 3.0719318847656254 0.9614999999999998 3.0449318847656253 0.9389999999999998 3.0449318847656253 0.9194999999999998 C 3.0449318847656253 0.7994999999999999 3.1469318847656256 0.5504999999999998 3.1469318847656256 0.4979999999999998 C 3.1469318847656256 0.4604999999999998 3.0569318847656253 0.44999999999999984 3.0179318847656256 0.44999999999999984 C 3.0179318847656256 0.44999999999999984 2.9414318847656253 0.35999999999999976 2.8214318847656252 0.35999999999999976 C 2.6849318847656254 0.35999999999999976 2.5064318847656253 0.6914999999999998 2.5064318847656253 0.8894999999999998 C 2.5064318847656253 0.9704999999999998 2.6309318847656256 1.0649999999999997 2.6999318847656255 1.0649999999999997 C 2.7764318847656253 1.0649999999999997 2.8664318847656256 0.9659999999999999 2.8664318847656256 0.9659999999999999 C 2.878431884765625 1.0079999999999998 3.0029318847656254 1.0649999999999997 3.0704318847656253 1.0649999999999997 C 3.1784318847656254 1.0649999999999997 3.2669318847656252 0.9284999999999999 3.3494318847656253 0.7784999999999997 C 3.3494318847656253 0.7784999999999997 3.3689318847656256 0.7439999999999998 3.3689318847656256 0.7259999999999998 C 3.3689318847656256 0.7079999999999997 3.3374318847656252 0.6839999999999998 3.3179318847656254 0.6839999999999998 C 3.2984318847656255 0.6839999999999998 3.2849318847656255 0.7109999999999999 3.2849318847656255 0.7109999999999999 M 3.7139597167968756 0.5234999999999999 C 3.7139597167968756 0.5654999999999999 3.6674597167968757 0.7469999999999999 3.6374597167968754 0.8099999999999998 C 3.5954597167968756 0.8969999999999998 3.5204597167968754 0.9494999999999998 3.4904597167968756 0.9494999999999998 C 3.4649597167968755 0.9494999999999998 3.4379597167968754 0.9239999999999998 3.4379597167968754 0.8894999999999998 C 3.4379597167968754 0.7574999999999998 3.5579597167968755 0.47999999999999976 3.6329597167968757 0.47999999999999976 C 3.6569597167968757 0.47999999999999976 3.7139597167968756 0.49949999999999983 3.7139597167968756 0.5234999999999999 M 4.040959716796875 0.7109999999999999 C 3.9674597167968755 0.8459999999999999 3.8864597167968755 0.9614999999999998 3.8414597167968756 0.9614999999999998 C 3.8279597167968755 0.9614999999999998 3.8009597167968754 0.9389999999999998 3.8009597167968754 0.9194999999999998 C 3.8009597167968754 0.7994999999999999 3.9029597167968753 0.5504999999999998 3.9029597167968753 0.4979999999999998 C 3.9029597167968753 0.4604999999999998 3.8129597167968754 0.44999999999999984 3.7739597167968757 0.44999999999999984 C 3.7739597167968757 0.44999999999999984 3.6974597167968755 0.35999999999999976 3.5774597167968754 0.35999999999999976 C 3.4409597167968755 0.35999999999999976 3.2624597167968754 0.6914999999999998 3.2624597167968754 0.8894999999999998 C 3.2624597167968754 0.9704999999999998 3.3869597167968757 1.0649999999999997 3.4559597167968756 1.0649999999999997 C 3.5324597167968754 1.0649999999999997 3.6224597167968753 0.9659999999999999 3.6224597167968753 0.9659999999999999 C 3.6344597167968757 1.0079999999999998 3.7589597167968756 1.0649999999999997 3.8264597167968755 1.0649999999999997 C 3.9344597167968756 1.0649999999999997 4.022959716796875 0.9284999999999999 4.105459716796876 0.7784999999999997 C 4.105459716796876 0.7784999999999997 4.124959716796876 0.7439999999999998 4.124959716796876 0.7259999999999998 C 4.124959716796876 0.7079999999999997 4.093459716796875 0.6839999999999998 4.0739597167968755 0.6839999999999998 C 4.054459716796876 0.6839999999999998 4.040959716796875 0.7109999999999999 4.040959716796875 0.7109999999999999 M 4.498487548828125 0.7784999999999997 C 4.498487548828125 0.7784999999999997 4.517987548828125 0.7439999999999998 4.517987548828125 0.7259999999999998 C 4.517987548828125 0.7079999999999997 4.4864875488281255 0.6839999999999998 4.466987548828126 0.6839999999999998 C 4.447487548828125 0.6839999999999998 4.433987548828125 0.7109999999999999 4.433987548828125 0.7109999999999999 C 4.360487548828125 0.8459999999999999 4.279487548828125 0.9614999999999998 4.234487548828125 0.9614999999999998 C 4.220987548828125 0.9614999999999998 4.178987548828125 0.9389999999999998 4.178987548828125 0.9194999999999998 C 4.178987548828125 0.8489999999999998 4.360487548828125 0.24149999999999983 4.375487548828125 0.19349999999999978 C 4.378487548828125 0.18149999999999977 4.381487548828125 0.16799999999999982 4.381487548828125 0.1559999999999998 C 4.381487548828125 0.13049999999999984 4.280987548828125 0.07499999999999984 4.2524875488281255 0.07499999999999984 C 4.240487548828125 0.07499999999999984 4.2284875488281255 0.08399999999999985 4.220987548828125 0.10649999999999982 C 4.172987548828125 0.25349999999999984 4.001987548828125 0.8534999999999998 4.001987548828125 0.9344999999999998 C 4.001987548828125 1.0019999999999998 4.151987548828125 1.0649999999999997 4.219487548828125 1.0649999999999997 C 4.327487548828125 1.0649999999999997 4.4174875488281256 0.9284999999999999 4.498487548828125 0.7784999999999997 M 4.5240087890625 0.9944999999999998 C 4.5240087890625 1.0274999999999999 4.5795087890624995 1.0679999999999998 4.6140087890625 1.0679999999999998 C 4.6710087890625 1.0679999999999998 4.7070087890625 0.9779999999999998 4.7070087890625 0.9269999999999998 C 4.7070087890625 0.8939999999999998 4.6515087890624995 0.8534999999999998 4.6170087890625 0.8534999999999998 C 4.5600087890625 0.8534999999999998 4.5240087890625 0.9434999999999998 4.5240087890625 0.9944999999999998 M 5.250043945312499 0.5219999999999998 C 5.227543945312499 0.6224999999999998 5.206543945312499 0.7019999999999997 5.1720439453125 0.7994999999999999 C 5.1540439453125 0.8504999999999998 5.0745439453125 0.9494999999999998 5.0280439453125 0.9494999999999998 C 4.996543945312499 0.9494999999999998 4.972543945312499 0.9209999999999998 4.972543945312499 0.8744999999999998 C 4.972543945312499 0.7814999999999999 5.085043945312499 0.47999999999999976 5.1675439453125 0.47999999999999976 C 5.203543945312499 0.47999999999999976 5.250043945312499 0.5219999999999998 5.250043945312499 0.5219999999999998 M 5.3610439453125 1.0649999999999997 C 5.4690439453124995 1.0649999999999997 5.557543945312499 0.9284999999999999 5.6400439453125 0.7784999999999997 C 5.6400439453125 0.7784999999999997 5.6595439453125 0.7439999999999998 5.6595439453125 0.7259999999999998 C 5.6595439453125 0.7079999999999997 5.628043945312499 0.6839999999999998 5.6085439453124994 0.6839999999999998 C 5.5890439453125 0.6839999999999998 5.5770439453125 0.7109999999999999 5.5770439453125 0.7109999999999999 C 5.5020439453125 0.8459999999999999 5.4210439453124994 0.9614999999999998 5.3760439453124995 0.9614999999999998 C 5.3625439453125 0.9614999999999998 5.3355439453125 0.9389999999999998 5.3355439453125 0.9194999999999998 C 5.3355439453125 0.8474999999999998 5.4015439453125 0.6299999999999999 5.443543945312499 0.47699999999999976 C 5.5020439453125 0.2639999999999998 5.5290439453125 0.19499999999999984 5.5290439453125 0.15749999999999975 C 5.5290439453125 0.13199999999999978 5.4360439453125 0.07499999999999984 5.418043945312499 0.07499999999999984 C 5.395543945312499 0.07499999999999984 5.3760439453124995 0.0854999999999998 5.368543945312499 0.10799999999999976 C 5.346043945312499 0.17849999999999977 5.278543945312499 0.42149999999999976 5.278543945312499 0.42149999999999976 C 5.278543945312499 0.42149999999999976 5.205043945312499 0.35999999999999976 5.1225439453125 0.35999999999999976 C 4.9650439453125 0.35999999999999976 4.7985439453125 0.7004999999999998 4.7985439453125 0.8984999999999999 C 4.7985439453125 0.9614999999999998 4.902043945312499 1.0649999999999997 4.993543945312499 1.0649999999999997 C 5.0595439453125 1.0649999999999997 5.1690439453125 0.9644999999999998 5.1690439453125 0.9644999999999998 C 5.1900439453125 0.9959999999999998 5.2935439453125 1.0649999999999997 5.3610439453125 1.0649999999999997 M 5.761515380859374 0.7259999999999998 C 5.775015380859374 0.6554999999999997 5.863515380859374 0.47699999999999976 5.922015380859374 0.47699999999999976 C 5.943015380859374 0.47699999999999976 5.967015380859374 0.4934999999999998 5.967015380859374 0.5144999999999998 C 5.967015380859374 0.5549999999999998 5.9055153808593746 0.7259999999999998 5.761515380859374 0.7259999999999998 M 5.562015380859374 0.8504999999999998 C 5.562015380859374 0.9674999999999998 5.743515380859375 1.0649999999999997 5.875515380859374 1.0649999999999997 C 5.9970153808593745 1.0649999999999997 6.127515380859374 0.9719999999999999 6.229515380859374 0.7784999999999997 C 6.229515380859374 0.7784999999999997 6.247515380859374 0.7439999999999998 6.247515380859374 0.7259999999999998 C 6.247515380859374 0.7079999999999997 6.216015380859374 0.6839999999999998 6.196515380859374 0.6839999999999998 C 6.177015380859374 0.6839999999999998 6.165015380859375 0.7109999999999999 6.165015380859375 0.7109999999999999 C 6.0675153808593745 0.9029999999999998 5.949015380859374 0.9584999999999998 5.868015380859374 0.9584999999999998 C 5.803515380859374 0.9584999999999998 5.7390153808593745 0.9029999999999998 5.7390153808593745 0.8669999999999998 C 5.7390153808593745 0.8189999999999998 5.751015380859374 0.7934999999999999 5.751015380859374 0.7934999999999999 C 5.751015380859374 0.7934999999999999 5.824515380859374 0.8144999999999998 5.892015380859374 0.8144999999999998 C 5.989515380859374 0.8144999999999998 6.085515380859374 0.5744999999999998 6.085515380859374 0.49949999999999983 C 6.085515380859374 0.43499999999999983 5.947515380859374 0.35999999999999976 5.871015380859374 0.35999999999999976 C 5.731515380859374 0.35999999999999976 5.562015380859374 0.6809999999999998 5.562015380859374 0.8504999999999998 M 6.900043945312499 0.7784999999999997 C 6.900043945312499 0.7784999999999997 6.921043945312499 0.7439999999999998 6.921043945312499 0.7259999999999998 C 6.921043945312499 0.7079999999999997 6.889543945312499 0.6839999999999998 6.868543945312499 0.6839999999999998 C 6.8505439453124986 0.6839999999999998 6.835543945312499 0.7109999999999999 6.835543945312499 0.7109999999999999 C 6.835543945312499 0.7109999999999999 6.7545439453124985 0.8744999999999998 6.655543945312499 0.8744999999999998 C 6.622543945312499 0.8744999999999998 6.598543945312499 0.8594999999999998 6.574543945312499 0.8429999999999997 C 6.688543945312499 0.7034999999999998 6.777043945312499 0.5369999999999998 6.777043945312499 0.45899999999999985 C 6.777043945312499 0.4169999999999998 6.693043945312499 0.35999999999999976 6.666043945312499 0.35999999999999976 C 6.6390439453124985 0.35999999999999976 6.633043945312499 0.37049999999999983 6.628543945312499 0.3929999999999998 C 6.597043945312499 0.5609999999999998 6.532543945312499 0.6974999999999998 6.472543945312498 0.7904999999999998 L 6.468043945312499 0.7904999999999998 C 6.435043945312499 0.7904999999999998 6.367543945312499 0.8564999999999998 6.367543945312499 0.8879999999999998 C 6.367543945312499 0.8969999999999998 6.370543945312499 0.9029999999999998 6.378043945312499 0.9104999999999999 C 6.360043945312499 0.9254999999999998 6.348043945312499 0.9329999999999998 6.340543945312499 0.9329999999999998 C 6.319543945312499 0.9329999999999998 6.307543945312499 0.9164999999999999 6.307543945312499 0.9014999999999999 C 6.307543945312499 0.8084999999999998 6.424543945312499 0.4904999999999998 6.424543945312499 0.4424999999999998 C 6.424543945312499 0.4139999999999998 6.330043945312499 0.35999999999999976 6.313543945312499 0.35999999999999976 C 6.291043945312499 0.35999999999999976 6.271543945312499 0.37049999999999983 6.2625439453124985 0.39149999999999985 C 6.229543945312499 0.48899999999999977 6.124543945312499 0.8834999999999998 6.124543945312499 0.9314999999999998 C 6.124543945312499 1.005 6.226543945312499 1.0649999999999997 6.2640439453124985 1.0649999999999997 C 6.327043945312499 1.0649999999999997 6.402043945312499 1.0184999999999997 6.4755439453124986 0.9509999999999998 C 6.538543945312499 0.9659999999999999 6.616543945312499 0.9734999999999998 6.660043945312498 0.9734999999999998 C 6.793543945312499 0.9734999999999998 6.900043945312499 0.7784999999999997 6.900043945312499 0.7784999999999997" fill="url(#gradient-e0bebded-c091-4af1-b750-f252ef00bade)" fill-rule="nonzero"></path></g><g></g><g clip-path="url(&quot;#SvgjsClipPath1002&quot;)"><g clip-path="url(&quot;#a&quot;)"><path d=" M -0.902673972257007 0.8787393163279542 L -2.8004993301230043 0.8787393163279542 L -2.8004993301230043 -0.2717316539025848 C -2.8004993301230043 -0.3178485748320848 -2.763114451028928 -0.3552334539261609 -2.716995977184288 -0.3552334539261609 L -0.9861757722805828 -0.3552334539261609 C -0.940060404266224 -0.3552334539261609 -0.902673972257007 -0.3178485748320848 -0.902673972257007 -0.2717316539025848 Z" fill="#5a5758" transform="matrix(1,0,0,1,0,0)" fill-rule="nonzero"></path></g><g clip-path="url(&quot;#a&quot;)"><path d=" M -0.902673972257007 0.8787393163279542 L -2.8004993301230043 0.8787393163279542 L -2.8004993301230043 -0.2717316539025848 C -2.8004993301230043 -0.3178485748320848 -2.763114451028928 -0.3552334539261609 -2.716995977184288 -0.3552334539261609 L -0.9861757722805828 -0.3552334539261609 C -0.940060404266224 -0.3552334539261609 -0.902673972257007 -0.3178485748320848 -0.902673972257007 -0.2717316539025848 Z" fill="none" transform="matrix(1,0,0,1,0,0)" fill-rule="nonzero" stroke-dasharray="none" stroke-miterlimit="10" stroke-linejoin="miter" stroke-linecap="butt" stroke-width="0.027834450979572246" stroke="#231f20"></path></g><g clip-path="url(&quot;#a&quot;)"><path d=" M -2.800499330123005 0.8787393163279542 L -0.902673972257007 0.8787393163279542 L -0.902673972257007 0.9869821603710878 C -0.902673972257007 1.0330990813005876 -0.9400572984359425 1.0704839603946639 -0.9861757722805828 1.0704839603946639 L -2.7169944242691475 1.0704839603946639 C -2.7631144510289283 1.0704839603946639 -2.800499330123005 1.0330990813005876 -2.800499330123005 0.9869821603710878 Z" fill="#ffffff" transform="matrix(1,0,0,1,0,0)" fill-rule="nonzero"></path></g><g clip-path="url(&quot;#a&quot;)"><path d=" M -2.800499330123005 0.8787393163279542 L -0.902673972257007 0.8787393163279542 L -0.902673972257007 0.9869821603710878 C -0.902673972257007 1.0330990813005876 -0.9400572984359425 1.0704839603946639 -0.9861757722805828 1.0704839603946639 L -2.7169944242691475 1.0704839603946639 C -2.7631144510289283 1.0704839603946639 -2.800499330123005 1.0330990813005876 -2.800499330123005 0.9869821603710878 Z" fill="none" transform="matrix(1,0,0,1,0,0)" fill-rule="nonzero" stroke-dasharray="none" stroke-miterlimit="10" stroke-linejoin="miter" stroke-linecap="butt" stroke-width="0.027834450979572246" stroke="#231f20"></path></g><g clip-path="url(&quot;#SvgjsClipPath1000&quot;)"><path d=" M -1.952633792406933 0.9746097505514166 L -1.7505343101829043 0.9746097505514166" fill="none" transform="matrix(1,0,0,1,0,0)" fill-rule="nonzero" stroke-dasharray="none" stroke-miterlimit="10" stroke-linejoin="miter" stroke-linecap="butt" stroke-width="0.027834450979572246" stroke="#231f20"></path></g><g clip-path="url(&quot;#SvgjsClipPath1000&quot;)"><path d=" M -2.7028597906596814 0.7799211142729385 L -2.6434390457209203 0.7799211142729385 L -2.6434390457209203 -0.19215096460894718 L -2.7028597906596814 -0.19215096460894718 Z" fill="#d3d2d2" transform="matrix(1,0,0,1,0,0)" fill-rule="nonzero" stroke-dasharray="none" stroke-miterlimit="10" stroke-linejoin="miter" stroke-linecap="butt" stroke-width="0.027834450979572246" stroke="#231f20"></path></g><g clip-path="url(&quot;#SvgjsClipPath1000&quot;)"><path d=" M -2.7028597906596814 -0.19498658765562743 L -1.0003166175506113 -0.19498658765562743 L -1.0003166175506113 -0.2544088855095292 L -2.7028597906596814 -0.2544088855095292 Z" fill="#d3d2d2" transform="matrix(1,0,0,1,0,0)" fill-rule="nonzero" stroke-dasharray="none" stroke-miterlimit="10" stroke-linejoin="miter" stroke-linecap="butt" stroke-width="0.027806498507041987" stroke="#231f20"></path></g><g clip-path="url(&quot;#SvgjsClipPath1000&quot;)"><path d=" M -2.6434377846070287 -0.18185564568371645 L -2.6434377846070287 -0.2520210104800796" fill="none" transform="matrix(1,0,0,1,0,0)" fill-rule="nonzero" stroke-dasharray="none" stroke-miterlimit="10" stroke-linejoin="miter" stroke-linecap="butt" stroke-width="0.027834450979572246" stroke="#231f20"></path></g><g clip-path="url(&quot;#SvgjsClipPath1000&quot;)"><path d=" M -2.6561356799102187 -0.20768322184492566 L -2.6901616035552425 -0.20768322184492566 L -2.6901616035552425 -0.2417106984050901 L -2.6561356799102187 -0.2417106984050901 Z" fill="#f9b25f" transform="matrix(1,0,0,1,0,0)" fill-rule="nonzero"></path></g><g clip-path="url(&quot;#SvgjsClipPath1000&quot;)"><path d=" M -1.0003166175506113 0.7799211142729385 L -2.6434390457209203 0.7799211142729385 L -2.6434390457209203 -0.19215096460894718 L -1.0003166175506113 -0.19215096460894718 Z" fill="#ffffff" transform="matrix(1,0,0,1,0,0)" fill-rule="nonzero" stroke-dasharray="none" stroke-miterlimit="10" stroke-linejoin="miter" stroke-linecap="butt" stroke-width="0.027834450979572246" stroke="#231f20"></path></g><g clip-path="url(&quot;#SvgjsClipPath1000&quot;)"><path d=" M -2.6434377846070287 -0.04814698843630677 L -1.0003153564367198 -0.04814698843630677" fill="none" transform="matrix(1,0,0,1,0,0)" fill-rule="nonzero" stroke-dasharray="none" stroke-miterlimit="10" stroke-linejoin="miter" stroke-linecap="butt" stroke-width="0.027834450979572246" stroke="#231f20"></path></g><g clip-path="url(&quot;#SvgjsClipPath1000&quot;)"><path d=" M -2.34690207374418 -0.18932130388615104 L -2.34690207374418 -0.048147341372095365" fill="none" transform="matrix(1,0,0,1,0,0)" fill-rule="nonzero" stroke-dasharray="none" stroke-miterlimit="10" stroke-linejoin="miter" stroke-linecap="butt" stroke-width="0.027834450979572246" stroke="#231f20"></path></g><g clip-path="url(&quot;#SvgjsClipPath1000&quot;)"><path d=" M -2.292329393442577 -0.1187341461612289 L -1.0543997954102902 -0.1187341461612289" fill="none" transform="matrix(1,0,0,1,0,0)" fill-rule="nonzero" stroke-dasharray="none" stroke-miterlimit="10" stroke-linejoin="miter" stroke-linecap="butt" stroke-width="0.027834450979572246" stroke="#231f20"></path></g><g clip-path="url(&quot;#SvgjsClipPath1000&quot;)"><path d=" M -2.558795853069025 -0.10191261870557938 L -2.5928217767140493 -0.10191261870557938 L -2.5928217767140493 -0.13594009526574405 L -2.558795853069025 -0.13594009526574405 Z M -2.4798254594256317 -0.10191261870557938 L -2.5138513830706555 -0.10191261870557938 L -2.5138513830706555 -0.13594009526574405 L -2.4798254594256317 -0.13594009526574405 Z M -2.4008550657822383 -0.10191261870557938 L -2.434880989427262 -0.10191261870557938 L -2.434880989427262 -0.13594009526574405 L -2.4008550657822383 -0.13594009526574405 Z" fill="#231f20" transform="matrix(1,0,0,1,0,0)" fill-rule="nonzero"></path></g><g clip-path="url(&quot;#SvgjsClipPath1000&quot;)"><path d=" M -1.0921249606610952 0.3595764911083774 L -2.5516338084407177 0.3595764911083774 L -2.5516338084407177 0.1253083717474464 L -1.0921249606610952 0.1253083717474464 Z" fill="#75bebc" transform="matrix(1,0,0,1,0,0)" fill-rule="nonzero"></path></g><g clip-path="url(&quot;#SvgjsClipPath1000&quot;)"><path d=" M -2.222006620181298 0.43592815291237963 L -1.0921210930541516 0.43592815291237963" fill="none" transform="matrix(1,0,0,1,0,0)" fill-rule="nonzero" stroke-dasharray="none" stroke-miterlimit="10" stroke-linejoin="miter" stroke-linecap="butt" stroke-width="0.027593749132783934" stroke="#231f20"></path></g><g clip-path="url(&quot;#SvgjsClipPath1000&quot;)"><path d=" M -2.222006620181298 0.5110739044289287 L -1.0921210930541516 0.5110739044289287" fill="none" transform="matrix(1,0,0,1,0,0)" fill-rule="nonzero" stroke-dasharray="none" stroke-miterlimit="10" stroke-linejoin="miter" stroke-linecap="butt" stroke-width="0.027593749132783934" stroke="#231f20"></path></g><g clip-path="url(&quot;#SvgjsClipPath1000&quot;)"><path d=" M -2.222006620181298 0.586220820634745 L -1.0921210930541516 0.586220820634745" fill="none" transform="matrix(1,0,0,1,0,0)" fill-rule="nonzero" stroke-dasharray="none" stroke-miterlimit="10" stroke-linejoin="miter" stroke-linecap="butt" stroke-width="0.027593749132783934" stroke="#231f20"></path></g><g clip-path="url(&quot;#SvgjsClipPath1000&quot;)"><path d=" M -2.222006620181298 0.661365407462027 L -1.0921210930541516 0.661365407462027" fill="none" transform="matrix(1,0,0,1,0,0)" fill-rule="nonzero" stroke-dasharray="none" stroke-miterlimit="10" stroke-linejoin="miter" stroke-linecap="butt" stroke-width="0.027593749132783934" stroke="#231f20"></path></g><g clip-path="url(&quot;#SvgjsClipPath1000&quot;)"><path d=" M -2.27793717366072 0.6782082783959009 L -2.5516322555255773 0.6782082783959009 L -2.5516322555255773 0.4217971420455857 L -2.27793717366072 0.4217971420455857 Z" fill="#f9b25f" transform="matrix(1,0,0,1,0,0)" fill-rule="nonzero"></path></g><g clip-path="url(&quot;#SvgjsClipPath1000&quot;)"><path d=" M -2.0418940722941183 0.06704454858840975 L -2.0759199959391417 0.06704454858840975 L -2.0759199959391417 0.0330186249433857 L -2.0418940722941183 0.0330186249433857 Z M -1.9628848557722103 0.06704454858840975 L -1.996910779417234 0.06704454858840975 L -1.996910779417234 0.0330186249433857 L -1.96288485577221 0.0330186249433857 Z M -1.8838756392503024 0.06704454858840975 L -1.9179015628953262 0.06704454858840975 L -1.9179015628953262 0.0330186249433857 L -1.883875639250302 0.0330186249433857 Z M -1.8048648698132537 0.06704454858840975 L -1.8388907934582779 0.06704454858840975 L -1.8388907934582779 0.0330186249433857 L -1.8048648698132537 0.0330186249433857 Z M -1.7258556532913458 0.06704454858840975 L -1.7598815769363696 0.06704454858840975 L -1.7598815769363696 0.0330186249433857 L -1.7258556532913458 0.0330186249433857 Z M -1.646846436769438 0.06704454858840975 L -1.680872360414462 0.06704454858840975 L -1.680872360414462 0.0330186249433857 L -1.646846436769438 0.0330186249433857 Z M -1.5678372202475304 0.06704454858840975 L -1.6018631438925541 0.06704454858840975 L -1.6018631438925541 0.0330186249433857 L -1.5678372202475304 0.0330186249433857 Z" fill="#231f20" transform="matrix(1,0,0,1,0,0)" fill-rule="nonzero"></path></g><g clip-path="url(&quot;#SvgjsClipPath1000&quot;)"><path d=" M -1.5237670414733013 1.4044911604889685 L -2.179410919652132 1.4044911604889685 L -2.179410919652132 1.3240827674254074 L -1.5237670414733013 1.3240827674254074 Z" fill="#ffffff" transform="matrix(1,0,0,1,0,0)" fill-rule="nonzero"></path></g><g clip-path="url(&quot;#b&quot;)"><path d=" M -1.5237670414733013 1.4044911604889685 L -2.179410919652132 1.4044911604889685 L -2.179410919652132 1.3240827674254074 L -1.5237670414733013 1.3240827674254074 Z" fill="none" transform="matrix(1,0,0,1,0,0)" fill-rule="nonzero" stroke-dasharray="none" stroke-miterlimit="10" stroke-linejoin="miter" stroke-linecap="butt" stroke-width="0.027834450979572246" stroke="#231f20"></path></g><g clip-path="url(&quot;#SvgjsClipPath1000&quot;)"><path d=" M -1.6924305632328436 1.0704823122661757 L -1.6422108405019586 1.3240811192969193 L -2.0609575139868737 1.3240811192969193 L -2.010737791255988 1.0704823122661757 Z" fill="#ffffff" transform="matrix(1,0,0,1,0,0)" fill-rule="nonzero"></path></g><g clip-path="url(&quot;#SvgjsClipPath1000&quot;)"><path d=" M -1.6924305632328436 1.0704823122661757 L -1.6422108405019586 1.3240811192969193 L -2.0609575139868737 1.3240811192969193 L -2.010737791255988 1.0704823122661757 Z" fill="none" transform="matrix(1,0,0,1,0,0)" fill-rule="nonzero" stroke-dasharray="none" stroke-miterlimit="10" stroke-linejoin="miter" stroke-linecap="butt" stroke-width="0.027834450979572246" stroke="#231f20"></path></g><g clip-path="url(&quot;#c&quot;)"><path d=" M -3.3031748552951523 1.4052334539261608 L -0.3999999999999999 1.4052334539261608" fill="none" transform="matrix(1,0,0,1,0,0)" fill-rule="nonzero" stroke-dasharray="none" stroke-miterlimit="10" stroke-linejoin="miter" stroke-linecap="butt" stroke-width="0.027834450979572246" stroke="#231f20"></path></g></g></g><defs><linearGradient id="gradient-e0bebded-c091-4af1-b750-f252ef00bade" x1="0" y1="0" x2="1" y2="1"><stop stop-color="#3361e1" offset="0"></stop><stop stop-color="#000000" offset="1"></stop></linearGradient><clipPath id="SvgjsClipPath1002"><path d=" M -3.3031748552951523 -0.36915067941594715 h 2.9031748552951524 v 1.7883013588318941 h -2.9031748552951524 Z"></path></clipPath><clipPath id="a"><path d=" M -3.3031748552951523 1.419150679415947 L -0.3999999999999999 1.419150679415947 L -0.3999999999999999 -0.36915067941594715 L -3.3031748552951523 -0.36915067941594715 Z"></path></clipPath><clipPath id="SvgjsClipPath1000"><path d=" M -3.3031748552951523 -0.36915067941594715 L -0.3999999999999999 -0.36915067941594715 L -0.3999999999999999 1.419150679415947 L -3.3031748552951523 1.419150679415947 Z"></path></clipPath><clipPath id="b"><path d=" M -3.3031748552951523 1.419150679415947 L -0.3999999999999999 1.419150679415947 L -0.3999999999999999 -0.36915067941594715 L -3.3031748552951523 -0.36915067941594715 Z"></path></clipPath><clipPath id="c"><path d=" M -3.3031748552951523 1.419150679415947 L -0.3999999999999999 1.419150679415947 L -0.3999999999999999 -0.36915067941594715 L -3.3031748552951523 -0.36915067941594715 Z"></path></clipPath></defs></svg>